<svg xmlns="http://www.w3.org/2000/svg" xmlns:xlink="http://www.w3.org/1999/xlink" id="svg" viewBox="53.33 0 346.67 400"><g id="svgg"><path id="path0" d="M253.333 13.333 C 253.333 25.185,251.852 26.667,240.000 26.667 C 228.148 26.667,226.667 28.148,226.667 40.000 C 226.667 52.275,225.432 53.333,211.111 53.333 C 196.296 53.333,195.556 54.074,195.556 68.889 C 195.556 83.210,194.497 84.444,182.222 84.444 L 168.889 84.444 168.889 115.556 L 168.889 146.667 182.222 146.667 C 194.074 146.667,195.556 148.148,195.556 160.000 C 195.556 172.275,196.790 173.333,211.111 173.333 C 225.432 173.333,226.667 174.392,226.667 186.667 C 226.667 198.942,225.432 200.000,211.111 200.000 C 196.790 200.000,195.556 201.058,195.556 213.333 C 195.556 225.185,194.074 226.667,182.222 226.667 C 170.370 226.667,168.889 228.148,168.889 240.000 C 168.889 252.275,167.654 253.333,153.333 253.333 C 138.519 253.333,137.778 254.074,137.778 268.889 C 137.778 283.210,136.720 284.444,124.444 284.444 C 112.593 284.444,111.111 285.926,111.111 297.778 C 111.111 309.630,109.630 311.111,97.778 311.111 C 85.503 311.111,84.444 312.346,84.444 326.667 C 84.444 341.481,83.704 342.222,68.889 342.222 L 53.333 342.222 53.333 371.111 L 53.333 400.000 84.444 400.000 L 115.556 400.000 115.556 386.667 C 115.556 374.815,117.037 373.333,128.889 373.333 C 140.741 373.333,142.222 371.852,142.222 360.000 C 142.222 347.725,143.457 346.667,157.778 346.667 C 172.593 346.667,173.333 345.926,173.333 331.111 C 173.333 316.790,174.392 315.556,186.667 315.556 C 198.519 315.556,200.000 314.074,200.000 302.222 C 200.000 289.947,201.235 288.889,215.556 288.889 C 230.370 288.889,231.111 288.148,231.111 273.333 C 231.111 259.012,232.169 257.778,244.444 257.778 C 256.296 257.778,257.778 256.296,257.778 244.444 C 257.778 232.593,259.259 231.111,271.111 231.111 C 283.386 231.111,284.444 229.877,284.444 215.556 C 284.444 201.235,285.503 200.000,297.778 200.000 C 310.053 200.000,311.111 201.235,311.111 215.556 L 311.111 231.111 342.222 231.111 L 373.333 231.111 373.333 215.556 C 373.333 201.235,374.392 200.000,386.667 200.000 L 400.000 200.000 400.000 171.111 L 400.000 142.222 386.667 142.222 L 373.333 142.222 373.333 113.333 L 373.333 84.444 357.778 84.444 L 342.222 84.444 342.222 55.556 L 342.222 26.667 328.889 26.667 C 317.037 26.667,315.556 25.185,315.556 13.333 L 315.556 0.000 284.444 0.000 L 253.333 0.000 253.333 13.333 M311.111 73.333 L 311.111 115.556 324.444 115.556 C 336.720 115.556,337.778 116.790,337.778 131.111 C 337.778 145.926,338.519 146.667,353.333 146.667 L 368.889 146.667 368.889 173.333 L 368.889 200.000 342.222 200.000 L 315.556 200.000 315.556 184.444 C 315.556 170.123,314.497 168.889,302.222 168.889 C 290.370 168.889,288.889 167.407,288.889 155.556 L 288.889 142.222 244.444 142.222 L 200.000 142.222 200.000 115.556 L 200.000 88.889 215.556 88.889 C 230.370 88.889,231.111 88.148,231.111 73.333 C 231.111 59.012,232.169 57.778,244.444 57.778 C 256.296 57.778,257.778 56.296,257.778 44.444 L 257.778 31.111 284.444 31.111 L 311.111 31.111 311.111 73.333 M284.444 186.667 C 284.444 198.519,282.963 200.000,271.111 200.000 C 259.259 200.000,257.778 198.519,257.778 186.667 C 257.778 174.815,259.259 173.333,271.111 173.333 C 282.963 173.333,284.444 174.815,284.444 186.667 M253.333 213.333 C 253.333 224.593,251.605 226.667,242.222 226.667 C 232.840 226.667,231.111 224.593,231.111 213.333 C 231.111 202.074,232.840 200.000,242.222 200.000 C 251.605 200.000,253.333 202.074,253.333 213.333 M226.667 242.222 C 226.667 251.605,224.593 253.333,213.333 253.333 C 202.074 253.333,200.000 251.605,200.000 242.222 C 200.000 232.840,202.074 231.111,213.333 231.111 C 224.593 231.111,226.667 232.840,226.667 242.222 M195.556 271.111 C 195.556 282.370,193.827 284.444,184.444 284.444 C 175.062 284.444,173.333 282.370,173.333 271.111 C 173.333 259.852,175.062 257.778,184.444 257.778 C 193.827 257.778,195.556 259.852,195.556 271.111 M168.889 300.000 C 168.889 309.383,166.815 311.111,155.556 311.111 C 144.296 311.111,142.222 309.383,142.222 300.000 C 142.222 290.617,144.296 288.889,155.556 288.889 C 166.815 288.889,168.889 290.617,168.889 300.000 M137.778 328.889 C 137.778 340.148,136.049 342.222,126.667 342.222 C 117.284 342.222,115.556 340.148,115.556 328.889 C 115.556 317.630,117.284 315.556,126.667 315.556 C 136.049 315.556,137.778 317.630,137.778 328.889 M111.111 357.778 C 111.111 366.667,108.889 368.889,100.000 368.889 C 91.111 368.889,88.889 366.667,88.889 357.778 C 88.889 348.889,91.111 346.667,100.000 346.667 C 108.889 346.667,111.111 348.889,111.111 357.778 " stroke="none" fill="#000000" fill-rule="evenodd"/></g></svg>